<mxfile host="65bd71144e">
    <diagram id="gyLWCIs_2NT41w74knfC" name="Page-1">
        <mxGraphModel dx="1812" dy="1654" grid="1" gridSize="10" guides="1" tooltips="1" connect="1" arrows="1" fold="1" page="1" pageScale="1" pageWidth="850" pageHeight="1100" math="0" shadow="0">
            <root>
                <mxCell id="0"/>
                <mxCell id="1" parent="0"/>
                <mxCell id="2" value="Main Datacenter (AWS/Google Console/Heroku)" style="swimlane;whiteSpace=wrap;html=1;" parent="1" vertex="1">
                    <mxGeometry x="-410" y="50" width="760" height="650" as="geometry"/>
                </mxCell>
                <mxCell id="28" style="edgeStyle=none;html=1;exitX=0.25;exitY=1;exitDx=0;exitDy=0;entryX=0.5;entryY=0;entryDx=0;entryDy=0;fontColor=#FFFFFF;" parent="2" source="6" target="23" edge="1">
                    <mxGeometry relative="1" as="geometry">
                        <Array as="points">
                            <mxPoint x="90" y="240"/>
                            <mxPoint x="80" y="240"/>
                        </Array>
                    </mxGeometry>
                </mxCell>
                <mxCell id="29" style="edgeStyle=none;html=1;exitX=0.5;exitY=1;exitDx=0;exitDy=0;entryX=0.5;entryY=0;entryDx=0;entryDy=0;fontColor=#FFFFFF;" parent="2" source="6" target="24" edge="1">
                    <mxGeometry relative="1" as="geometry">
                        <Array as="points">
                            <mxPoint x="110" y="320"/>
                            <mxPoint x="200" y="320"/>
                        </Array>
                    </mxGeometry>
                </mxCell>
                <mxCell id="30" style="edgeStyle=none;html=1;exitX=0.75;exitY=1;exitDx=0;exitDy=0;entryX=0.5;entryY=0;entryDx=0;entryDy=0;fontColor=#FFFFFF;" parent="2" source="6" target="26" edge="1">
                    <mxGeometry relative="1" as="geometry">
                        <Array as="points">
                            <mxPoint x="130" y="310"/>
                            <mxPoint x="360" y="310"/>
                        </Array>
                    </mxGeometry>
                </mxCell>
                <mxCell id="31" style="edgeStyle=none;html=1;exitX=1;exitY=1;exitDx=0;exitDy=0;entryX=0.5;entryY=0;entryDx=0;entryDy=0;fontColor=#FFFFFF;" parent="2" source="6" target="27" edge="1">
                    <mxGeometry relative="1" as="geometry">
                        <Array as="points">
                            <mxPoint x="150" y="300"/>
                            <mxPoint x="500" y="300"/>
                        </Array>
                    </mxGeometry>
                </mxCell>
                <mxCell id="32" style="edgeStyle=none;html=1;exitX=1;exitY=0.75;exitDx=0;exitDy=0;entryX=0.5;entryY=0;entryDx=0;entryDy=0;fontColor=#FFFFFF;" parent="2" source="6" target="25" edge="1">
                    <mxGeometry relative="1" as="geometry">
                        <Array as="points">
                            <mxPoint x="190" y="130"/>
                            <mxPoint x="190" y="260"/>
                            <mxPoint x="600" y="260"/>
                        </Array>
                    </mxGeometry>
                </mxCell>
                <mxCell id="6" value="Nginx" style="whiteSpace=wrap;html=1;aspect=fixed;" parent="2" vertex="1">
                    <mxGeometry x="70" y="70" width="80" height="80" as="geometry"/>
                </mxCell>
                <mxCell id="19" style="edgeStyle=none;html=1;exitX=0;exitY=0.5;exitDx=0;exitDy=0;entryX=1;entryY=0.5;entryDx=0;entryDy=0;fontColor=#FFFFFF;" parent="2" source="15" target="6" edge="1">
                    <mxGeometry relative="1" as="geometry"/>
                </mxCell>
                <mxCell id="15" value="Certbot" style="rhombus;whiteSpace=wrap;html=1;fontColor=#FFFFFF;" parent="2" vertex="1">
                    <mxGeometry x="180" y="70" width="80" height="80" as="geometry"/>
                </mxCell>
                <mxCell id="23" value="Microservice&lt;br&gt;A" style="ellipse;whiteSpace=wrap;html=1;aspect=fixed;fontColor=#FFFFFF;" parent="2" vertex="1">
                    <mxGeometry x="40" y="340" width="80" height="80" as="geometry"/>
                </mxCell>
                <mxCell id="24" value="Microservice&lt;br&gt;B" style="ellipse;whiteSpace=wrap;html=1;aspect=fixed;fontColor=#FFFFFF;" parent="2" vertex="1">
                    <mxGeometry x="160" y="440" width="80" height="80" as="geometry"/>
                </mxCell>
                <mxCell id="94" style="edgeStyle=none;html=1;exitX=0.5;exitY=1;exitDx=0;exitDy=0;entryX=0.5;entryY=0;entryDx=0;entryDy=0;entryPerimeter=0;fontColor=#FFFFFF;" parent="2" source="25" target="85" edge="1">
                    <mxGeometry relative="1" as="geometry"/>
                </mxCell>
                <mxCell id="25" value="Microservice&lt;br&gt;E" style="ellipse;whiteSpace=wrap;html=1;aspect=fixed;fontColor=#FFFFFF;" parent="2" vertex="1">
                    <mxGeometry x="560" y="300" width="80" height="80" as="geometry"/>
                </mxCell>
                <mxCell id="92" style="edgeStyle=none;html=1;exitX=0.5;exitY=1;exitDx=0;exitDy=0;entryX=0.5;entryY=0;entryDx=0;entryDy=0;entryPerimeter=0;fontColor=#FFFFFF;" parent="2" source="26" target="83" edge="1">
                    <mxGeometry relative="1" as="geometry"/>
                </mxCell>
                <mxCell id="26" value="Microservice&lt;br&gt;C" style="ellipse;whiteSpace=wrap;html=1;aspect=fixed;fontColor=#FFFFFF;" parent="2" vertex="1">
                    <mxGeometry x="320" y="480" width="80" height="80" as="geometry"/>
                </mxCell>
                <mxCell id="93" style="edgeStyle=none;html=1;exitX=0.5;exitY=1;exitDx=0;exitDy=0;entryX=0.5;entryY=0;entryDx=0;entryDy=0;entryPerimeter=0;fontColor=#FFFFFF;" parent="2" source="27" target="84" edge="1">
                    <mxGeometry relative="1" as="geometry"/>
                </mxCell>
                <mxCell id="27" value="Microservice&lt;br&gt;D" style="ellipse;whiteSpace=wrap;html=1;aspect=fixed;fontColor=#FFFFFF;" parent="2" vertex="1">
                    <mxGeometry x="460" y="450" width="80" height="80" as="geometry"/>
                </mxCell>
                <mxCell id="81" style="edgeStyle=none;html=1;exitX=0.5;exitY=1;exitDx=0;exitDy=0;fontColor=#FFFFFF;" parent="2" source="33" target="79" edge="1">
                    <mxGeometry relative="1" as="geometry"/>
                </mxCell>
                <mxCell id="33" value="Microservice&lt;br&gt;A" style="ellipse;whiteSpace=wrap;html=1;aspect=fixed;fontColor=#FFFFFF;" parent="2" vertex="1">
                    <mxGeometry x="40" y="340" width="80" height="80" as="geometry"/>
                </mxCell>
                <mxCell id="91" style="edgeStyle=none;html=1;exitX=0.5;exitY=1;exitDx=0;exitDy=0;entryX=0.5;entryY=0;entryDx=0;entryDy=0;entryPerimeter=0;fontColor=#FFFFFF;" parent="2" source="34" target="82" edge="1">
                    <mxGeometry relative="1" as="geometry"/>
                </mxCell>
                <mxCell id="34" value="Microservice&lt;br&gt;B" style="ellipse;whiteSpace=wrap;html=1;aspect=fixed;fontColor=#FFFFFF;" parent="2" vertex="1">
                    <mxGeometry x="160" y="440" width="80" height="80" as="geometry"/>
                </mxCell>
                <mxCell id="77" style="edgeStyle=none;html=1;exitX=0;exitY=0.5;exitDx=0;exitDy=0;entryX=1;entryY=0.5;entryDx=0;entryDy=0;entryPerimeter=0;fontColor=#FFFFFF;" parent="2" source="66" target="74" edge="1">
                    <mxGeometry relative="1" as="geometry"/>
                </mxCell>
                <mxCell id="66" value="Central Server" style="shape=hexagon;perimeter=hexagonPerimeter2;whiteSpace=wrap;html=1;fixedSize=1;fontColor=#FFFFFF;" parent="2" vertex="1">
                    <mxGeometry x="480" y="100" width="120" height="80" as="geometry"/>
                </mxCell>
                <mxCell id="74" value="Main DB" style="shape=cylinder3;whiteSpace=wrap;html=1;boundedLbl=1;backgroundOutline=1;size=15;fontColor=#FFFFFF;" parent="2" vertex="1">
                    <mxGeometry x="340" y="100" width="60" height="80" as="geometry"/>
                </mxCell>
                <mxCell id="79" value="DB A" style="shape=cylinder3;whiteSpace=wrap;html=1;boundedLbl=1;backgroundOutline=1;size=15;fontColor=#FFFFFF;" parent="2" vertex="1">
                    <mxGeometry x="60" y="450" width="40" height="60" as="geometry"/>
                </mxCell>
                <mxCell id="82" value="DB B" style="shape=cylinder3;whiteSpace=wrap;html=1;boundedLbl=1;backgroundOutline=1;size=15;fontColor=#FFFFFF;" parent="2" vertex="1">
                    <mxGeometry x="180" y="550" width="40" height="60" as="geometry"/>
                </mxCell>
                <mxCell id="83" value="DB C" style="shape=cylinder3;whiteSpace=wrap;html=1;boundedLbl=1;backgroundOutline=1;size=15;fontColor=#FFFFFF;" parent="2" vertex="1">
                    <mxGeometry x="340" y="580" width="40" height="60" as="geometry"/>
                </mxCell>
                <mxCell id="84" value="DB D" style="shape=cylinder3;whiteSpace=wrap;html=1;boundedLbl=1;backgroundOutline=1;size=15;fontColor=#FFFFFF;" parent="2" vertex="1">
                    <mxGeometry x="480" y="570" width="40" height="60" as="geometry"/>
                </mxCell>
                <mxCell id="85" value="DB E" style="shape=cylinder3;whiteSpace=wrap;html=1;boundedLbl=1;backgroundOutline=1;size=15;fontColor=#FFFFFF;" parent="2" vertex="1">
                    <mxGeometry x="580" y="420" width="40" height="60" as="geometry"/>
                </mxCell>
                <mxCell id="7" style="edgeStyle=none;html=1;exitX=0.5;exitY=0;exitDx=0;exitDy=0;entryX=0.31;entryY=0.8;entryDx=0;entryDy=0;entryPerimeter=0;endArrow=classic;startArrow=classic;" parent="1" source="5" target="8" edge="1">
                    <mxGeometry relative="1" as="geometry">
                        <Array as="points">
                            <mxPoint x="-715" y="70"/>
                            <mxPoint x="-623" y="70"/>
                        </Array>
                    </mxGeometry>
                </mxCell>
                <mxCell id="10" style="edgeStyle=none;html=1;exitX=1;exitY=0.5;exitDx=0;exitDy=0;entryX=0;entryY=0.5;entryDx=0;entryDy=0;" parent="1" source="5" target="6" edge="1">
                    <mxGeometry relative="1" as="geometry"/>
                </mxCell>
                <mxCell id="5" value="Request" style="triangle;whiteSpace=wrap;html=1;" parent="1" vertex="1">
                    <mxGeometry x="-760" y="110" width="90" height="100" as="geometry"/>
                </mxCell>
                <mxCell id="8" value="DNS" style="ellipse;shape=cloud;whiteSpace=wrap;html=1;" parent="1" vertex="1">
                    <mxGeometry x="-660" y="-70" width="120" height="80" as="geometry"/>
                </mxCell>
                <mxCell id="17" style="edgeStyle=none;html=1;exitX=0.55;exitY=0.95;exitDx=0;exitDy=0;exitPerimeter=0;fontColor=#FFFFFF;endArrow=classic;startArrow=classic;entryX=0.5;entryY=0;entryDx=0;entryDy=0;" parent="1" source="16" target="15" edge="1">
                    <mxGeometry relative="1" as="geometry">
                        <mxPoint x="-210" y="140" as="targetPoint"/>
                        <Array as="points">
                            <mxPoint x="-394" y="-50"/>
                            <mxPoint x="-190" y="-50"/>
                        </Array>
                    </mxGeometry>
                </mxCell>
                <mxCell id="22" value="Get Cert" style="edgeLabel;html=1;align=center;verticalAlign=middle;resizable=0;points=[];fontColor=#FFFFFF;" parent="17" vertex="1" connectable="0">
                    <mxGeometry x="-0.3225" y="1" relative="1" as="geometry">
                        <mxPoint as="offset"/>
                    </mxGeometry>
                </mxCell>
                <mxCell id="16" value="HTTPS" style="ellipse;shape=cloud;whiteSpace=wrap;html=1;fontColor=#FFFFFF;" parent="1" vertex="1">
                    <mxGeometry x="-460" y="-150" width="120" height="80" as="geometry"/>
                </mxCell>
                <mxCell id="20" style="edgeStyle=none;html=1;exitX=0.5;exitY=0;exitDx=0;exitDy=0;entryX=0.31;entryY=0.8;entryDx=0;entryDy=0;entryPerimeter=0;fontColor=#FFFFFF;endArrow=classic;startArrow=classic;" parent="1" source="6" target="16" edge="1">
                    <mxGeometry relative="1" as="geometry">
                        <Array as="points">
                            <mxPoint x="-300" y="20"/>
                            <mxPoint x="-423" y="20"/>
                        </Array>
                    </mxGeometry>
                </mxCell>
                <mxCell id="21" value="Check Cert" style="edgeLabel;html=1;align=center;verticalAlign=middle;resizable=0;points=[];fontColor=#FFFFFF;" parent="20" vertex="1" connectable="0">
                    <mxGeometry x="0.0501" y="3" relative="1" as="geometry">
                        <mxPoint as="offset"/>
                    </mxGeometry>
                </mxCell>
                <mxCell id="41" value="Backup Datacenter (Home Wifi)" style="swimlane;whiteSpace=wrap;html=1;" parent="1" vertex="1">
                    <mxGeometry x="690" y="340" width="760" height="660" as="geometry"/>
                </mxCell>
                <mxCell id="42" style="edgeStyle=none;html=1;exitX=0.25;exitY=1;exitDx=0;exitDy=0;entryX=0.5;entryY=0;entryDx=0;entryDy=0;fontColor=#FFFFFF;" parent="41" source="47" target="50" edge="1">
                    <mxGeometry relative="1" as="geometry">
                        <Array as="points">
                            <mxPoint x="90" y="240"/>
                            <mxPoint x="80" y="240"/>
                        </Array>
                    </mxGeometry>
                </mxCell>
                <mxCell id="43" style="edgeStyle=none;html=1;exitX=0.5;exitY=1;exitDx=0;exitDy=0;entryX=0.5;entryY=0;entryDx=0;entryDy=0;fontColor=#FFFFFF;" parent="41" source="47" target="51" edge="1">
                    <mxGeometry relative="1" as="geometry">
                        <Array as="points">
                            <mxPoint x="110" y="320"/>
                            <mxPoint x="200" y="320"/>
                        </Array>
                    </mxGeometry>
                </mxCell>
                <mxCell id="44" style="edgeStyle=none;html=1;exitX=0.75;exitY=1;exitDx=0;exitDy=0;entryX=0.5;entryY=0;entryDx=0;entryDy=0;fontColor=#FFFFFF;" parent="41" source="47" target="53" edge="1">
                    <mxGeometry relative="1" as="geometry">
                        <Array as="points">
                            <mxPoint x="130" y="310"/>
                            <mxPoint x="360" y="310"/>
                        </Array>
                    </mxGeometry>
                </mxCell>
                <mxCell id="45" style="edgeStyle=none;html=1;exitX=1;exitY=1;exitDx=0;exitDy=0;entryX=0.5;entryY=0;entryDx=0;entryDy=0;fontColor=#FFFFFF;" parent="41" source="47" target="54" edge="1">
                    <mxGeometry relative="1" as="geometry">
                        <Array as="points">
                            <mxPoint x="150" y="300"/>
                            <mxPoint x="500" y="300"/>
                        </Array>
                    </mxGeometry>
                </mxCell>
                <mxCell id="46" style="edgeStyle=none;html=1;exitX=1;exitY=0.75;exitDx=0;exitDy=0;entryX=0.5;entryY=0;entryDx=0;entryDy=0;fontColor=#FFFFFF;" parent="41" source="47" target="52" edge="1">
                    <mxGeometry relative="1" as="geometry">
                        <Array as="points">
                            <mxPoint x="190" y="130"/>
                            <mxPoint x="190" y="260"/>
                            <mxPoint x="600" y="260"/>
                        </Array>
                    </mxGeometry>
                </mxCell>
                <mxCell id="47" value="Nginx" style="whiteSpace=wrap;html=1;aspect=fixed;" parent="41" vertex="1">
                    <mxGeometry x="70" y="70" width="80" height="80" as="geometry"/>
                </mxCell>
                <mxCell id="48" style="edgeStyle=none;html=1;exitX=0;exitY=0.5;exitDx=0;exitDy=0;entryX=1;entryY=0.5;entryDx=0;entryDy=0;fontColor=#FFFFFF;" parent="41" source="49" target="47" edge="1">
                    <mxGeometry relative="1" as="geometry"/>
                </mxCell>
                <mxCell id="49" value="Certbot" style="rhombus;whiteSpace=wrap;html=1;fontColor=#FFFFFF;" parent="41" vertex="1">
                    <mxGeometry x="180" y="70" width="80" height="80" as="geometry"/>
                </mxCell>
                <mxCell id="50" value="Microservice&lt;br&gt;A" style="ellipse;whiteSpace=wrap;html=1;aspect=fixed;fontColor=#FFFFFF;" parent="41" vertex="1">
                    <mxGeometry x="40" y="340" width="80" height="80" as="geometry"/>
                </mxCell>
                <mxCell id="51" value="Microservice&lt;br&gt;B" style="ellipse;whiteSpace=wrap;html=1;aspect=fixed;fontColor=#FFFFFF;" parent="41" vertex="1">
                    <mxGeometry x="160" y="440" width="80" height="80" as="geometry"/>
                </mxCell>
                <mxCell id="99" style="edgeStyle=none;html=1;exitX=0.5;exitY=1;exitDx=0;exitDy=0;entryX=0.5;entryY=0;entryDx=0;entryDy=0;entryPerimeter=0;fontColor=#FFFFFF;" parent="41" source="52" target="89" edge="1">
                    <mxGeometry relative="1" as="geometry"/>
                </mxCell>
                <mxCell id="52" value="Microservice&lt;br&gt;E" style="ellipse;whiteSpace=wrap;html=1;aspect=fixed;fontColor=#FFFFFF;" parent="41" vertex="1">
                    <mxGeometry x="560" y="300" width="80" height="80" as="geometry"/>
                </mxCell>
                <mxCell id="97" style="edgeStyle=none;html=1;exitX=0.5;exitY=1;exitDx=0;exitDy=0;entryX=0.5;entryY=0;entryDx=0;entryDy=0;entryPerimeter=0;fontColor=#FFFFFF;" parent="41" source="53" target="87" edge="1">
                    <mxGeometry relative="1" as="geometry"/>
                </mxCell>
                <mxCell id="53" value="Microservice&lt;br&gt;C" style="ellipse;whiteSpace=wrap;html=1;aspect=fixed;fontColor=#FFFFFF;" parent="41" vertex="1">
                    <mxGeometry x="320" y="480" width="80" height="80" as="geometry"/>
                </mxCell>
                <mxCell id="98" style="edgeStyle=none;html=1;exitX=0.5;exitY=1;exitDx=0;exitDy=0;entryX=0.5;entryY=0;entryDx=0;entryDy=0;entryPerimeter=0;fontColor=#FFFFFF;" parent="41" source="54" target="88" edge="1">
                    <mxGeometry relative="1" as="geometry"/>
                </mxCell>
                <mxCell id="54" value="Microservice&lt;br&gt;D" style="ellipse;whiteSpace=wrap;html=1;aspect=fixed;fontColor=#FFFFFF;" parent="41" vertex="1">
                    <mxGeometry x="460" y="450" width="80" height="80" as="geometry"/>
                </mxCell>
                <mxCell id="95" style="edgeStyle=none;html=1;exitX=0.5;exitY=1;exitDx=0;exitDy=0;entryX=0.5;entryY=0;entryDx=0;entryDy=0;entryPerimeter=0;fontColor=#FFFFFF;" parent="41" source="55" target="90" edge="1">
                    <mxGeometry relative="1" as="geometry"/>
                </mxCell>
                <mxCell id="55" value="Microservice&lt;br&gt;A" style="ellipse;whiteSpace=wrap;html=1;aspect=fixed;fontColor=#FFFFFF;" parent="41" vertex="1">
                    <mxGeometry x="40" y="340" width="80" height="80" as="geometry"/>
                </mxCell>
                <mxCell id="96" style="edgeStyle=none;html=1;exitX=0.5;exitY=1;exitDx=0;exitDy=0;entryX=0.5;entryY=0;entryDx=0;entryDy=0;entryPerimeter=0;fontColor=#FFFFFF;" parent="41" source="56" target="86" edge="1">
                    <mxGeometry relative="1" as="geometry"/>
                </mxCell>
                <mxCell id="56" value="Microservice&lt;br&gt;B" style="ellipse;whiteSpace=wrap;html=1;aspect=fixed;fontColor=#FFFFFF;" parent="41" vertex="1">
                    <mxGeometry x="160" y="440" width="80" height="80" as="geometry"/>
                </mxCell>
                <mxCell id="101" style="edgeStyle=none;html=1;exitX=0;exitY=0.5;exitDx=0;exitDy=0;entryX=1;entryY=0.5;entryDx=0;entryDy=0;entryPerimeter=0;fontColor=#FFFFFF;" parent="41" source="67" target="100" edge="1">
                    <mxGeometry relative="1" as="geometry"/>
                </mxCell>
                <mxCell id="67" value="Backup Central&lt;br&gt;Server" style="shape=hexagon;perimeter=hexagonPerimeter2;whiteSpace=wrap;html=1;fixedSize=1;fontColor=#FFFFFF;" parent="41" vertex="1">
                    <mxGeometry x="460" y="100" width="120" height="80" as="geometry"/>
                </mxCell>
                <mxCell id="86" value="DB B" style="shape=cylinder3;whiteSpace=wrap;html=1;boundedLbl=1;backgroundOutline=1;size=15;fontColor=#FFFFFF;" parent="41" vertex="1">
                    <mxGeometry x="180" y="540" width="40" height="60" as="geometry"/>
                </mxCell>
                <mxCell id="87" value="DB C" style="shape=cylinder3;whiteSpace=wrap;html=1;boundedLbl=1;backgroundOutline=1;size=15;fontColor=#FFFFFF;" parent="41" vertex="1">
                    <mxGeometry x="340" y="580" width="40" height="60" as="geometry"/>
                </mxCell>
                <mxCell id="88" value="DB D" style="shape=cylinder3;whiteSpace=wrap;html=1;boundedLbl=1;backgroundOutline=1;size=15;fontColor=#FFFFFF;" parent="41" vertex="1">
                    <mxGeometry x="480" y="560" width="40" height="60" as="geometry"/>
                </mxCell>
                <mxCell id="89" value="DB E" style="shape=cylinder3;whiteSpace=wrap;html=1;boundedLbl=1;backgroundOutline=1;size=15;fontColor=#FFFFFF;" parent="41" vertex="1">
                    <mxGeometry x="580" y="410" width="40" height="60" as="geometry"/>
                </mxCell>
                <mxCell id="90" value="DB A" style="shape=cylinder3;whiteSpace=wrap;html=1;boundedLbl=1;backgroundOutline=1;size=15;fontColor=#FFFFFF;" parent="41" vertex="1">
                    <mxGeometry x="60" y="450" width="40" height="60" as="geometry"/>
                </mxCell>
                <mxCell id="100" value="Backup DB" style="shape=cylinder3;whiteSpace=wrap;html=1;boundedLbl=1;backgroundOutline=1;size=15;fontColor=#FFFFFF;" parent="41" vertex="1">
                    <mxGeometry x="330" y="100" width="60" height="80" as="geometry"/>
                </mxCell>
                <mxCell id="57" style="edgeStyle=none;html=1;exitX=0.5;exitY=0;exitDx=0;exitDy=0;entryX=0.875;entryY=0.5;entryDx=0;entryDy=0;entryPerimeter=0;fontColor=#FFFFFF;" parent="1" source="49" target="16" edge="1">
                    <mxGeometry relative="1" as="geometry">
                        <Array as="points">
                            <mxPoint x="910" y="-110"/>
                        </Array>
                    </mxGeometry>
                </mxCell>
                <mxCell id="62" value="Get Cert" style="edgeLabel;html=1;align=center;verticalAlign=middle;resizable=0;points=[];fontColor=#FFFFFF;" parent="57" vertex="1" connectable="0">
                    <mxGeometry x="-0.6767" y="-2" relative="1" as="geometry">
                        <mxPoint as="offset"/>
                    </mxGeometry>
                </mxCell>
                <mxCell id="60" style="edgeStyle=none;html=1;exitX=0.5;exitY=0;exitDx=0;exitDy=0;entryX=0.8;entryY=0.8;entryDx=0;entryDy=0;entryPerimeter=0;fontColor=#FFFFFF;" parent="1" source="47" target="16" edge="1">
                    <mxGeometry relative="1" as="geometry">
                        <Array as="points">
                            <mxPoint x="800" y="-86"/>
                        </Array>
                    </mxGeometry>
                </mxCell>
                <mxCell id="61" value="Check Cert" style="edgeLabel;html=1;align=center;verticalAlign=middle;resizable=0;points=[];fontColor=#FFFFFF;" parent="60" vertex="1" connectable="0">
                    <mxGeometry x="-0.5773" relative="1" as="geometry">
                        <mxPoint as="offset"/>
                    </mxGeometry>
                </mxCell>
                <mxCell id="63" style="edgeStyle=none;html=1;exitX=0;exitY=0.75;exitDx=0;exitDy=0;entryX=0;entryY=0.75;entryDx=0;entryDy=0;fontColor=#FFFFFF;" parent="1" source="6" target="47" edge="1">
                    <mxGeometry relative="1" as="geometry">
                        <Array as="points">
                            <mxPoint x="-480" y="180"/>
                            <mxPoint x="-480" y="730"/>
                            <mxPoint x="560" y="730"/>
                            <mxPoint x="560" y="470"/>
                        </Array>
                    </mxGeometry>
                </mxCell>
                <mxCell id="64" value="Send to Backup" style="edgeLabel;html=1;align=center;verticalAlign=middle;resizable=0;points=[];fontColor=#FFFFFF;" parent="63" vertex="1" connectable="0">
                    <mxGeometry x="-0.7809" y="2" relative="1" as="geometry">
                        <mxPoint as="offset"/>
                    </mxGeometry>
                </mxCell>
                <mxCell id="68" style="edgeStyle=none;html=1;exitX=1;exitY=0.5;exitDx=0;exitDy=0;entryX=0.5;entryY=0;entryDx=0;entryDy=0;fontColor=#FFFFFF;endArrow=classic;startArrow=classic;" parent="1" source="66" target="67" edge="1">
                    <mxGeometry relative="1" as="geometry">
                        <Array as="points">
                            <mxPoint x="1210" y="190"/>
                        </Array>
                    </mxGeometry>
                </mxCell>
                <mxCell id="69" value="TCP over TLS" style="edgeLabel;html=1;align=center;verticalAlign=middle;resizable=0;points=[];fontColor=#FFFFFF;" parent="68" vertex="1" connectable="0">
                    <mxGeometry x="-0.2979" y="1" relative="1" as="geometry">
                        <mxPoint as="offset"/>
                    </mxGeometry>
                </mxCell>
                <mxCell id="71" style="edgeStyle=none;html=1;entryX=1;entryY=0.75;entryDx=0;entryDy=0;fontColor=#FFFFFF;endArrow=classic;startArrow=classic;" parent="1" source="70" target="66" edge="1">
                    <mxGeometry relative="1" as="geometry">
                        <Array as="points">
                            <mxPoint x="370" y="207"/>
                        </Array>
                    </mxGeometry>
                </mxCell>
                <mxCell id="72" value="TCP over TLS" style="edgeLabel;html=1;align=center;verticalAlign=middle;resizable=0;points=[];fontColor=#FFFFFF;" parent="71" vertex="1" connectable="0">
                    <mxGeometry x="0.2001" y="-5" relative="1" as="geometry">
                        <mxPoint x="-5" y="433" as="offset"/>
                    </mxGeometry>
                </mxCell>
                <mxCell id="103" style="edgeStyle=none;html=1;exitX=0.5;exitY=1;exitDx=0;exitDy=0;entryX=0.5;entryY=0;entryDx=0;entryDy=0;entryPerimeter=0;fontColor=#FFFFFF;" parent="1" source="70" target="102" edge="1">
                    <mxGeometry relative="1" as="geometry"/>
                </mxCell>
                <mxCell id="70" value="External&lt;br&gt;Microservice&lt;br&gt;(app)" style="ellipse;whiteSpace=wrap;html=1;aspect=fixed;fontColor=#FFFFFF;" parent="1" vertex="1">
                    <mxGeometry x="330" y="890" width="80" height="80" as="geometry"/>
                </mxCell>
                <mxCell id="102" value="app DB" style="shape=cylinder3;whiteSpace=wrap;html=1;boundedLbl=1;backgroundOutline=1;size=15;fontColor=#FFFFFF;" parent="1" vertex="1">
                    <mxGeometry x="350" y="1010" width="40" height="60" as="geometry"/>
                </mxCell>
                <mxCell id="108" value="Do we need all the micro databases? It may be easier to have multiple connections to the main.&lt;br&gt;&lt;br&gt;However, without the central server, the other microservices will not recieve any updates. Also, there would be no way for the backup systems to write to the main DB" style="shape=note;size=15;align=left;spacingLeft=10;html=1;whiteSpace=wrap;" vertex="1" parent="1">
                    <mxGeometry x="410" y="210" width="150" height="230" as="geometry"/>
                </mxCell>
                <mxCell id="109" value="" style="edgeStyle=none;endArrow=none;exitX=0;exitY=0.5;dashed=1;html=1;entryX=0.625;entryY=1;entryDx=0;entryDy=0;exitDx=0;exitDy=0;exitPerimeter=0;" edge="1" source="108" parent="1" target="66">
                    <mxGeometry x="1" relative="1" as="geometry">
                        <mxPoint x="390" y="240" as="targetPoint"/>
                    </mxGeometry>
                </mxCell>
            </root>
        </mxGraphModel>
    </diagram>
</mxfile>